<mxfile host="Electron" modified="2024-03-14T09:13:25.644Z" agent="Mozilla/5.0 (Windows NT 10.0; Win64; x64) AppleWebKit/537.36 (KHTML, like Gecko) draw.io/24.0.4 Chrome/120.0.6099.109 Electron/28.1.0 Safari/537.36" etag="RJFubmLHsU8yUDPBhhw4" version="24.0.4" type="device">
  <diagram name="第 1 页" id="EYXrK2PX5--47g2wrMfo">
    <mxGraphModel dx="941" dy="644" grid="1" gridSize="10" guides="1" tooltips="1" connect="1" arrows="1" fold="1" page="1" pageScale="1" pageWidth="827" pageHeight="1169" math="0" shadow="0">
      <root>
        <mxCell id="0" />
        <mxCell id="1" parent="0" />
        <mxCell id="fzmuUnm974bnPMUxqQIk-13" value="" style="edgeStyle=orthogonalEdgeStyle;rounded=0;orthogonalLoop=1;jettySize=auto;html=1;" edge="1" parent="1" source="fzmuUnm974bnPMUxqQIk-11" target="fzmuUnm974bnPMUxqQIk-12">
          <mxGeometry relative="1" as="geometry">
            <Array as="points">
              <mxPoint x="220" y="240" />
              <mxPoint x="220" y="240" />
            </Array>
          </mxGeometry>
        </mxCell>
        <mxCell id="fzmuUnm974bnPMUxqQIk-11" value="json格式字符串" style="shape=tape;whiteSpace=wrap;html=1;" vertex="1" parent="1">
          <mxGeometry x="50" y="200" width="120" height="100" as="geometry" />
        </mxCell>
        <mxCell id="fzmuUnm974bnPMUxqQIk-15" value="" style="edgeStyle=orthogonalEdgeStyle;rounded=0;orthogonalLoop=1;jettySize=auto;html=1;" edge="1" parent="1" source="fzmuUnm974bnPMUxqQIk-12" target="fzmuUnm974bnPMUxqQIk-14">
          <mxGeometry relative="1" as="geometry">
            <Array as="points">
              <mxPoint x="410" y="240" />
              <mxPoint x="410" y="240" />
            </Array>
          </mxGeometry>
        </mxCell>
        <mxCell id="fzmuUnm974bnPMUxqQIk-18" value="" style="edgeStyle=orthogonalEdgeStyle;rounded=0;orthogonalLoop=1;jettySize=auto;html=1;" edge="1" parent="1" source="fzmuUnm974bnPMUxqQIk-12" target="fzmuUnm974bnPMUxqQIk-11">
          <mxGeometry relative="1" as="geometry" />
        </mxCell>
        <mxCell id="fzmuUnm974bnPMUxqQIk-12" value="json库" style="whiteSpace=wrap;html=1;" vertex="1" parent="1">
          <mxGeometry x="250" y="220" width="120" height="60" as="geometry" />
        </mxCell>
        <mxCell id="fzmuUnm974bnPMUxqQIk-19" value="" style="edgeStyle=orthogonalEdgeStyle;rounded=0;orthogonalLoop=1;jettySize=auto;html=1;" edge="1" parent="1" source="fzmuUnm974bnPMUxqQIk-14" target="fzmuUnm974bnPMUxqQIk-12">
          <mxGeometry relative="1" as="geometry" />
        </mxCell>
        <mxCell id="fzmuUnm974bnPMUxqQIk-14" value="自定义的数据格式" style="shape=tape;whiteSpace=wrap;html=1;" vertex="1" parent="1">
          <mxGeometry x="450" y="200" width="120" height="100" as="geometry" />
        </mxCell>
      </root>
    </mxGraphModel>
  </diagram>
</mxfile>
